<svg width="30" height="30" viewBox="0 0 30 30" fill="none" xmlns="http://www.w3.org/2000/svg">
<path fill-rule="evenodd" clip-rule="evenodd" d="M27.5 10.7203L16.25 2.27157C15.75 1.90948 15.125 1.90948 14.75 2.27157L3.5 10.7203C3.125 10.9617 3 11.3238 3 11.6859V24.9624C3 27.0143 4.625 28.5833 6.75 28.5833H24.25C26.375 28.5833 28 27.0143 28 24.9624V11.6859C28 11.3238 27.875 10.9617 27.5 10.7203ZM18 16.5137V26.1694H13V16.5137H18ZM24.25 26.1694C25 26.1694 25.5 25.6866 25.5 24.9624V12.2893L15.5 4.80619L5.5 12.2893V24.9624C5.5 25.6866 6 26.1694 6.75 26.1694H10.5V15.3068C10.5 14.5826 11 14.0998 11.75 14.0998H19.25C20 14.0998 20.5 14.5826 20.5 15.3068V26.1694H24.25Z" fill="#759791"/>
</svg>
