<svg width="30" height="30" viewBox="0 0 30 30" fill="none" xmlns="http://www.w3.org/2000/svg">
<rect width="30" height="30" fill="#C4C4C4"/>
<path fill-rule="evenodd" clip-rule="evenodd" d="M13.3264 5.27886V2.39286C13.3264 1.624 13.9805 1 14.7863 1C15.5907 1 16.2462 1.624 16.2462 2.39286V5.27886C18.4156 5.57693 20.4433 6.538 22.0113 8.03393C23.9281 9.86275 25.0055 12.3434 25.0055 14.9286V20.1713L26.1865 22.4249C26.7515 23.5044 26.6916 24.7858 26.0259 25.8124C25.3617 26.8389 24.1865 27.4643 22.9222 27.4643H16.2462C16.2462 28.2331 15.5907 28.8571 14.7863 28.8571C13.9805 28.8571 13.3264 28.2331 13.3264 27.4643H6.65041C5.38469 27.4643 4.20951 26.8389 3.54527 25.8124C2.87956 24.7858 2.8197 23.5044 3.38613 22.4249L4.56716 20.1713V14.9286C4.56716 12.3434 5.64311 9.86275 7.55994 8.03393C9.1293 6.538 11.1556 5.57693 13.3264 5.27886ZM14.7863 7.96428C12.849 7.96428 10.9936 8.69832 9.62421 10.0048C8.25484 11.3099 7.48691 13.0816 7.48691 14.9286V20.5C7.48691 20.7159 7.43292 20.929 7.33219 21.1226C7.33219 21.1226 6.68253 22.3622 5.99638 23.6701C5.88397 23.886 5.89566 24.1437 6.02851 24.3485C6.16135 24.5532 6.39639 24.6786 6.65041 24.6786H22.9222C23.1748 24.6786 23.4098 24.5532 23.5427 24.3485C23.6755 24.1437 23.6872 23.886 23.5748 23.6701C22.8887 22.3622 22.239 21.1226 22.239 21.1226C22.1383 20.929 22.0857 20.7159 22.0857 20.5V14.9286C22.0857 13.0816 21.3163 11.3099 19.947 10.0048C18.5776 8.69832 16.7221 7.96428 14.7863 7.96428Z" fill="#759791"/>
</svg>
