<svg width="30" height="30" viewBox="0 0 30 30" fill="none" xmlns="http://www.w3.org/2000/svg">
<path fill-rule="evenodd" clip-rule="evenodd" d="M3.46386 10.1574C2.35852 11.9748 3.41453 13.8521 4.68788 14.5495L4.94921 14.6921C4.94521 14.7961 4.94255 14.9001 4.94121 15.0001C4.94255 15.1001 4.94521 15.2041 4.94921 15.3081L4.68788 15.4508C3.41453 16.1482 2.35852 18.0255 3.46386 19.8429L4.93988 22.2669C5.97189 23.9616 7.98258 24.0376 9.21193 23.3642L9.44927 23.2336C9.74527 23.4256 10.0533 23.6042 10.3679 23.7696V23.8149C10.3679 25.4443 11.6546 27.0003 13.524 27.0003H16.476C18.3454 27.0003 19.6321 25.4443 19.6321 23.8149V23.7696C19.9467 23.6042 20.2547 23.4256 20.5507 23.2336L20.7881 23.3642C22.0174 24.0376 24.0281 23.9616 25.0601 22.2669L26.5361 19.8429C27.6415 18.0255 26.5855 16.1482 25.3121 15.4508L25.0508 15.3081C25.0548 15.2041 25.0575 15.1001 25.0588 15.0001C25.0575 14.9001 25.0548 14.7961 25.0508 14.6921L25.3121 14.5495C26.5855 13.8521 27.6415 11.9748 26.5361 10.1574L25.0601 7.73339C24.0281 6.0387 22.0174 5.96404 20.7881 6.63604L20.5507 6.76671C20.2547 6.57471 19.9467 6.39604 19.6321 6.23071V6.18537C19.6321 4.55602 18.3454 3 16.476 3H13.524C11.6546 3 10.3679 4.55602 10.3679 6.18537V6.23071C10.0533 6.39604 9.74527 6.57471 9.44927 6.76671L9.21193 6.63604C7.98258 5.96404 5.97189 6.0387 4.93988 7.73339L3.46386 10.1574ZM9.69594 9.94142L7.93458 8.97607C7.67325 8.8334 7.35058 8.8974 7.21457 9.12141L5.73856 11.5454C5.60256 11.7694 5.70389 12.0654 5.96523 12.2094L7.82658 13.2281C7.68258 13.7948 7.60525 14.3895 7.60525 15.0001C7.60525 15.6108 7.68258 16.2055 7.82658 16.7722L5.96523 17.7908C5.70389 17.9348 5.60256 18.2308 5.73856 18.4548L7.21457 20.8789C7.35058 21.1029 7.67325 21.1669 7.93458 21.0242L9.69594 20.0589C10.5999 20.9722 11.7453 21.6522 13.032 22.0002V23.8149C13.032 24.1016 13.252 24.3336 13.524 24.3336H16.476C16.748 24.3336 16.968 24.1016 16.968 23.8149V22.0002C18.2547 21.6522 19.4001 20.9722 20.3041 20.0589L22.0654 21.0242C22.3268 21.1669 22.6494 21.1029 22.7854 20.8789L24.2614 18.4548C24.3974 18.2308 24.2961 17.9348 24.0348 17.7908L22.1734 16.7722C22.3174 16.2055 22.3948 15.6108 22.3948 15.0001C22.3948 14.3895 22.3174 13.7948 22.1734 13.2281L24.0348 12.2094C24.2961 12.0654 24.3974 11.7694 24.2614 11.5454L22.7854 9.12141C22.6494 8.8974 22.3268 8.8334 22.0654 8.97607L20.3041 9.94142C19.4001 9.02807 18.2547 8.34806 16.968 8.00139V6.18537C16.968 5.8987 16.748 5.6667 16.476 5.6667H13.524C13.252 5.6667 13.032 5.8987 13.032 6.18537V8.00139C11.7453 8.34806 10.5999 9.02807 9.69594 9.94142ZM14.9948 19.0002C17.2015 19.0002 18.9895 17.2095 18.9895 15.0001C18.9895 12.7908 17.2015 11.0001 14.9948 11.0001C12.7881 11.0001 11.0001 12.7908 11.0001 15.0001C11.0001 17.2095 12.7881 19.0002 14.9948 19.0002ZM16.5 15C16.5 15.828 15.8288 16.5 15 16.5C14.1712 16.5 13.5 15.828 13.5 15C13.5 14.172 14.1712 13.5 15 13.5C15.8288 13.5 16.5 14.172 16.5 15Z" fill="#759791"/>
</svg>
