<svg width="24" height="24" viewBox="0 0 24 24" fill="none" xmlns="http://www.w3.org/2000/svg">
<path fill-rule="evenodd" clip-rule="evenodd" d="M18.9167 14.8333C19 14.6667 19.1667 14.5 19.5 14.5C20.9167 14.5 22 13.4167 22 12C22 10.5833 20.9167 9.5 19.5 9.5H19.3333C19.1667 9.5 19 9.41667 18.9167 9.25C18.9167 9.21459 18.9167 9.19422 18.9103 9.17612C18.9016 9.15162 18.8813 9.13125 18.8333 9.08333C18.75 8.91667 18.75 8.66667 19 8.41667C20 7.41667 20 5.83333 19 4.91667C18.5 4.41667 17.9167 4.16667 17.25 4.16667C16.5833 4.16667 15.9167 4.41667 15.4167 4.91667C15.25 5.08333 15 5.08333 14.8333 5C14.6667 5 14.5 4.75 14.5 4.5C14.5 3.08333 13.4167 2 12 2C10.5833 2 9.5 3.08333 9.5 4.5V4.66667C9.5 4.83333 9.41667 5 9.25 5.08333C9.21459 5.08333 9.19422 5.08333 9.17612 5.08973C9.15162 5.09838 9.13125 5.11875 9.08333 5.16667C8.91667 5.25 8.66667 5.16667 8.41667 5C7.41667 4 5.83333 4 4.91667 5C3.91667 6 3.91667 7.58333 5 8.58333C5.16667 8.75 5.16667 9 5.08333 9.25C5 9.41667 4.75 9.58333 4.5 9.58333C3.08333 9.58333 2 10.6667 2 12.0833C2 13.5 3.08333 14.5833 4.5 14.5833H4.66667C4.91667 14.5833 5.08333 14.75 5.16667 14.9167C5.25 15.0833 5.25 15.3333 5 15.5833C4.5 16.0833 4.25 16.6667 4.25 17.3333C4.25 18 4.5 18.5833 5 19.0833C6 20.0833 7.58333 20.0833 8.58333 19C8.75 18.8333 9 18.8333 9.25 18.9167C9.5 19 9.58333 19.1667 9.58333 19.5C9.58333 20.9167 10.6667 22 12.0833 22C13.5 22 14.5833 20.9167 14.5833 19.5V19.3333C14.5833 19.0833 14.75 18.9167 14.9167 18.8333C15.0833 18.75 15.3333 18.75 15.5833 19C16.5833 20 18.1667 20 19.0833 19C20.0833 18 20.0833 16.4167 19 15.4167C18.9167 15.25 18.8333 15 18.9167 14.8333ZM8.66667 12C8.66667 10.1667 10.1667 8.66667 12 8.66667C13.8333 8.66667 15.3333 10.1667 15.3333 12C15.3333 13.8333 13.8333 15.3333 12 15.3333C10.1667 15.3333 8.66667 13.8333 8.66667 12ZM10.3333 12C10.3333 12.9167 11.0833 13.6667 12 13.6667C12.9167 13.6667 13.6667 12.9167 13.6667 12C13.6667 11.0833 12.9167 10.3333 12 10.3333C11.0833 10.3333 10.3333 11.0833 10.3333 12ZM17.9167 16.6667C17.25 15.9167 17.0833 15 17.4167 14.1667C17.75 13.3333 18.5833 12.8333 19.4167 12.8333C20 12.8333 20.3333 12.5 20.3333 12C20.3333 11.5 20 11.1667 19.5 11.1667H19.3333C18.5 11.1667 17.6667 10.6667 17.3333 9.83333C17.25 9.75 17.25 9.66667 17.25 9.58333C17 8.83333 17.1667 7.91667 17.75 7.33333C18.1667 6.91667 18.1667 6.41667 17.8333 6.08333C17.6667 5.91667 17.5 5.83333 17.25 5.83333C17 5.83333 16.8333 5.91667 16.6667 6.08333C15.9167 6.75 15 6.91667 14.1667 6.58333C13.3333 6.25 12.8333 5.5 12.8333 4.58333C12.8333 4 12.5 3.66667 12 3.66667C11.5 3.66667 11.1667 4 11.1667 4.5V4.66667C11.1667 5.5 10.6667 6.33333 9.83333 6.66667C9.75 6.75 9.66667 6.75 9.58333 6.75C8.83333 7 7.91667 6.83333 7.33333 6.25C6.91667 5.83333 6.41667 5.83333 6.08333 6.16667C5.75 6.5 5.75 7 6.08333 7.33333C6.75 8.08333 6.91667 9 6.58333 9.83333C6.25 10.6667 5.5 11.25 4.58333 11.25H4.5C4 11.25 3.66667 11.5833 3.66667 12.0833C3.66667 12.5833 4 12.9167 4.5 12.9167H4.66667C5.5 12.9167 6.33333 13.4167 6.66667 14.25C7.08333 15.0833 6.91667 16 6.25 16.6667C6 16.9167 5.91667 17.0833 5.91667 17.3333C5.91667 17.5833 6 17.75 6.16667 17.9167C6.5 18.25 7 18.25 7.33333 17.9167C7.75 17.5 8.33333 17.25 8.91667 17.25C9.25 17.25 9.58333 17.25 9.83333 17.4167C10.6667 17.75 11.25 18.5 11.25 19.4167V19.5C11.25 20 11.5833 20.3333 12.0833 20.3333C12.5833 20.3333 12.9167 20 12.9167 19.5V19.3333C12.9167 18.5 13.4167 17.6667 14.25 17.3333C15.0833 16.9167 16 17.0833 16.6667 17.75C16.9167 18 17.0833 18.0833 17.3333 18.0833C17.5833 18.0833 17.75 18 17.9167 17.8333C18.0833 17.6667 18.1667 17.5 18.1667 17.25C18.1667 17 18.0833 16.8333 17.9167 16.6667Z" fill="black"/>
<mask id="mask0" mask-type="alpha" maskUnits="userSpaceOnUse" x="2" y="2" width="20" height="20">
<path fill-rule="evenodd" clip-rule="evenodd" d="M18.9167 14.8333C19 14.6667 19.1667 14.5 19.5 14.5C20.9167 14.5 22 13.4167 22 12C22 10.5833 20.9167 9.5 19.5 9.5H19.3333C19.1667 9.5 19 9.41667 18.9167 9.25C18.9167 9.21459 18.9167 9.19422 18.9103 9.17612C18.9016 9.15162 18.8813 9.13125 18.8333 9.08333C18.75 8.91667 18.75 8.66667 19 8.41667C20 7.41667 20 5.83333 19 4.91667C18.5 4.41667 17.9167 4.16667 17.25 4.16667C16.5833 4.16667 15.9167 4.41667 15.4167 4.91667C15.25 5.08333 15 5.08333 14.8333 5C14.6667 5 14.5 4.75 14.5 4.5C14.5 3.08333 13.4167 2 12 2C10.5833 2 9.5 3.08333 9.5 4.5V4.66667C9.5 4.83333 9.41667 5 9.25 5.08333C9.21459 5.08333 9.19422 5.08333 9.17612 5.08973C9.15162 5.09838 9.13125 5.11875 9.08333 5.16667C8.91667 5.25 8.66667 5.16667 8.41667 5C7.41667 4 5.83333 4 4.91667 5C3.91667 6 3.91667 7.58333 5 8.58333C5.16667 8.75 5.16667 9 5.08333 9.25C5 9.41667 4.75 9.58333 4.5 9.58333C3.08333 9.58333 2 10.6667 2 12.0833C2 13.5 3.08333 14.5833 4.5 14.5833H4.66667C4.91667 14.5833 5.08333 14.75 5.16667 14.9167C5.25 15.0833 5.25 15.3333 5 15.5833C4.5 16.0833 4.25 16.6667 4.25 17.3333C4.25 18 4.5 18.5833 5 19.0833C6 20.0833 7.58333 20.0833 8.58333 19C8.75 18.8333 9 18.8333 9.25 18.9167C9.5 19 9.58333 19.1667 9.58333 19.5C9.58333 20.9167 10.6667 22 12.0833 22C13.5 22 14.5833 20.9167 14.5833 19.5V19.3333C14.5833 19.0833 14.75 18.9167 14.9167 18.8333C15.0833 18.75 15.3333 18.75 15.5833 19C16.5833 20 18.1667 20 19.0833 19C20.0833 18 20.0833 16.4167 19 15.4167C18.9167 15.25 18.8333 15 18.9167 14.8333ZM8.66667 12C8.66667 10.1667 10.1667 8.66667 12 8.66667C13.8333 8.66667 15.3333 10.1667 15.3333 12C15.3333 13.8333 13.8333 15.3333 12 15.3333C10.1667 15.3333 8.66667 13.8333 8.66667 12ZM10.3333 12C10.3333 12.9167 11.0833 13.6667 12 13.6667C12.9167 13.6667 13.6667 12.9167 13.6667 12C13.6667 11.0833 12.9167 10.3333 12 10.3333C11.0833 10.3333 10.3333 11.0833 10.3333 12ZM17.9167 16.6667C17.25 15.9167 17.0833 15 17.4167 14.1667C17.75 13.3333 18.5833 12.8333 19.4167 12.8333C20 12.8333 20.3333 12.5 20.3333 12C20.3333 11.5 20 11.1667 19.5 11.1667H19.3333C18.5 11.1667 17.6667 10.6667 17.3333 9.83333C17.25 9.75 17.25 9.66667 17.25 9.58333C17 8.83333 17.1667 7.91667 17.75 7.33333C18.1667 6.91667 18.1667 6.41667 17.8333 6.08333C17.6667 5.91667 17.5 5.83333 17.25 5.83333C17 5.83333 16.8333 5.91667 16.6667 6.08333C15.9167 6.75 15 6.91667 14.1667 6.58333C13.3333 6.25 12.8333 5.5 12.8333 4.58333C12.8333 4 12.5 3.66667 12 3.66667C11.5 3.66667 11.1667 4 11.1667 4.5V4.66667C11.1667 5.5 10.6667 6.33333 9.83333 6.66667C9.75 6.75 9.66667 6.75 9.58333 6.75C8.83333 7 7.91667 6.83333 7.33333 6.25C6.91667 5.83333 6.41667 5.83333 6.08333 6.16667C5.75 6.5 5.75 7 6.08333 7.33333C6.75 8.08333 6.91667 9 6.58333 9.83333C6.25 10.6667 5.5 11.25 4.58333 11.25H4.5C4 11.25 3.66667 11.5833 3.66667 12.0833C3.66667 12.5833 4 12.9167 4.5 12.9167H4.66667C5.5 12.9167 6.33333 13.4167 6.66667 14.25C7.08333 15.0833 6.91667 16 6.25 16.6667C6 16.9167 5.91667 17.0833 5.91667 17.3333C5.91667 17.5833 6 17.75 6.16667 17.9167C6.5 18.25 7 18.25 7.33333 17.9167C7.75 17.5 8.33333 17.25 8.91667 17.25C9.25 17.25 9.58333 17.25 9.83333 17.4167C10.6667 17.75 11.25 18.5 11.25 19.4167V19.5C11.25 20 11.5833 20.3333 12.0833 20.3333C12.5833 20.3333 12.9167 20 12.9167 19.5V19.3333C12.9167 18.5 13.4167 17.6667 14.25 17.3333C15.0833 16.9167 16 17.0833 16.6667 17.75C16.9167 18 17.0833 18.0833 17.3333 18.0833C17.5833 18.0833 17.75 18 17.9167 17.8333C18.0833 17.6667 18.1667 17.5 18.1667 17.25C18.1667 17 18.0833 16.8333 17.9167 16.6667Z" fill="white"/>
</mask>
<g mask="url(#mask0)">
<rect x="2" y="2" width="20" height="20" fill="#6E6B7B"/>
</g>
</svg>
