<svg width="24" height="25" viewBox="0 0 24 25" fill="none" xmlns="http://www.w3.org/2000/svg">
<g clip-path="url(#clip0)">
<path d="M15.2344 5.89059C15.2344 6.01983 15.3395 6.12497 15.4688 6.12497H20.8272C20.6986 5.8875 20.5331 5.66939 20.3343 5.48128L15.8145 1.20525C15.639 1.03931 15.4437 0.900892 15.2344 0.791626V5.89059Z" fill="white"/>
<path d="M15.4688 7.53125C14.5641 7.53125 13.8281 6.79527 13.8281 5.89062V0.5H5.4375C4.01592 0.5 2.85938 1.65655 2.85938 3.07812V21.9219C2.85938 23.3435 4.01592 24.5 5.4375 24.5H18.5625C19.9841 24.5 21.1406 23.3435 21.1406 21.9219V7.53125H15.4688ZM10.5938 5.42188C10.9821 5.42188 11.2969 5.73669 11.2969 6.125C11.2969 6.51331 10.9821 6.82812 10.5938 6.82812H9.1875V8.23438C9.1875 8.62269 8.87269 8.9375 8.48438 8.9375C8.09606 8.9375 7.78125 8.62269 7.78125 8.23438V6.82812H6.375C5.98669 6.82812 5.67188 6.51331 5.67188 6.125C5.67188 5.73669 5.98669 5.42188 6.375 5.42188H7.78125V4.01562C7.78125 3.62731 8.09606 3.3125 8.48438 3.3125C8.87269 3.3125 9.1875 3.62731 9.1875 4.01562V5.42188H10.5938ZM6.70312 16.4375C6.31481 16.4375 6 16.1227 6 15.7344C6 15.3461 6.31481 15.0312 6.70312 15.0312H17.0156C17.4039 15.0312 17.7188 15.3461 17.7188 15.7344C17.7188 16.1227 17.4039 16.4375 17.0156 16.4375H6.70312ZM10.815 19.4844C10.815 19.8727 10.5002 20.1875 10.1119 20.1875H6.70312C6.31481 20.1875 6 19.8727 6 19.4844C6 19.0961 6.31481 18.7812 6.70312 18.7812H10.1119C10.5002 18.7812 10.815 19.0961 10.815 19.4844ZM17.0156 11.2812C17.4039 11.2812 17.7188 11.5961 17.7188 11.9844C17.7188 12.3727 17.4039 12.6875 17.0156 12.6875H6.70312C6.31481 12.6875 6 12.3727 6 11.9844C6 11.5961 6.31481 11.2812 6.70312 11.2812H17.0156Z" fill="white"/>
</g>
<defs>
<clipPath id="clip0">
<rect width="24" height="24" fill="white" transform="translate(0 0.5)"/>
</clipPath>
</defs>
</svg>
