<svg width="20" height="20" viewBox="0 0 20 20" fill="none" xmlns="http://www.w3.org/2000/svg">
    <path fill-rule="evenodd" clip-rule="evenodd" d="M10 0.207275C4.91671 0.207275 0.833374 4.29061 0.833374 9.37394C0.833374 14.4573 4.91671 18.5406 10 18.5406C15.0834 18.5406 19.1667 14.4573 19.1667 9.37394C19.1667 4.29061 15.0834 0.207275 10 0.207275ZM10 16.8739C5.83337 16.8739 2.50004 13.5406 2.50004 9.37394C2.50004 5.20728 5.83337 1.87394 10 1.87394C14.1667 1.87394 17.5 5.20728 17.5 9.37394C17.5 13.5406 14.1667 16.8739 10 16.8739ZM11.1667 9.37394L13.0834 7.45728C13.4167 7.12394 13.4167 6.62394 13.0834 6.29061C12.75 5.95728 12.25 5.95728 11.9167 6.29061L10 8.20728L8.08337 6.29061C7.75004 5.95728 7.25004 5.95728 6.91671 6.29061C6.58337 6.62394 6.58337 7.12394 6.91671 7.45728L8.83337 9.37394L6.91671 11.2906C6.58337 11.6239 6.58337 12.1239 6.91671 12.4573C7.08337 12.6239 7.25004 12.7073 7.50004 12.7073C7.75004 12.7073 7.91671 12.6239 8.08337 12.4573L10 10.5406L11.9167 12.4573C12.0834 12.6239 12.25 12.7073 12.5 12.7073C12.75 12.7073 12.9167 12.6239 13.0834 12.4573C13.4167 12.1239 13.4167 11.6239 13.0834 11.2906L11.1667 9.37394Z" fill="#6E6B7B"/>
</svg>

