<svg width="28" height="28" viewBox="0 0 28 28" fill="none" xmlns="http://www.w3.org/2000/svg">
<path fill-rule="evenodd" clip-rule="evenodd" d="M3 4H25C25.5523 4 26 4.44772 26 5V10C26 10.5523 25.5523 11 25 11H24V10C24 9.44772 23.5523 9 23 9H24V6H4V9H5C4.44772 9 4 9.44772 4 10V11H3C2.44772 11 2 10.5523 2 10V5C2 4.44772 2.44772 4 3 4ZM6 11H4V23C4 23.5523 4.44772 24 5 24H23C23.5523 24 24 23.5523 24 23V11H22V10C22 9.44772 22.4477 9 23 9H5C5.55228 9 6 9.44772 6 10V11ZM6 11H22V22H6V11ZM11 14C11 14.5523 11.4477 15 12 15H16C16.5523 15 17 14.5523 17 14C17 13.4477 16.5523 13 16 13H12C11.4477 13 11 13.4477 11 14Z" fill="black"/>
<mask id="mask0" mask-type="alpha" maskUnits="userSpaceOnUse" x="2" y="4" width="24" height="20">
<path fill-rule="evenodd" clip-rule="evenodd" d="M3 4H25C25.5523 4 26 4.44772 26 5V10C26 10.5523 25.5523 11 25 11H24V10C24 9.44772 23.5523 9 23 9H24V6H4V9H5C4.44772 9 4 9.44772 4 10V11H3C2.44772 11 2 10.5523 2 10V5C2 4.44772 2.44772 4 3 4ZM6 11H4V23C4 23.5523 4.44772 24 5 24H23C23.5523 24 24 23.5523 24 23V11H22V10C22 9.44772 22.4477 9 23 9H5C5.55228 9 6 9.44772 6 10V11ZM6 11H22V22H6V11ZM11 14C11 14.5523 11.4477 15 12 15H16C16.5523 15 17 14.5523 17 14C17 13.4477 16.5523 13 16 13H12C11.4477 13 11 13.4477 11 14Z" fill="white"/>
</mask>
<g mask="url(#mask0)">
<rect x="2" y="2" width="24" height="24" fill="#0E8A74"/>
</g>
</svg>
