<svg width="28" height="28" viewBox="0 0 28 28" fill="none" xmlns="http://www.w3.org/2000/svg">
<path fill-rule="evenodd" clip-rule="evenodd" d="M17.5 4.66671V3.50004C17.5 2.85604 18.0227 2.33337 18.6667 2.33337C19.3107 2.33337 19.8333 2.85604 19.8333 3.50004V4.66671C22.4105 4.66671 24.5 6.75621 24.5 9.33337V21C24.5 23.5772 22.4105 25.6667 19.8333 25.6667C16.4967 25.6667 11.5022 25.6667 8.16667 25.6667C5.5895 25.6667 3.5 23.5772 3.5 21V9.33337C3.5 6.75621 5.5895 4.66671 8.16667 4.66671V3.50004C8.16667 2.85604 8.68933 2.33337 9.33333 2.33337C9.97733 2.33337 10.5 2.85604 10.5 3.50004V4.66671H17.5ZM22.1667 14H5.83333V21C5.83333 22.288 6.8775 23.3334 8.16667 23.3334H19.8333C21.1213 23.3334 22.1667 22.288 22.1667 21V14ZM19.8333 7.00004V8.16671C19.8333 8.81071 19.3107 9.33337 18.6667 9.33337C18.0227 9.33337 17.5 8.81071 17.5 8.16671V7.00004H10.5V8.16671C10.5 8.81071 9.97733 9.33337 9.33333 9.33337C8.68933 9.33337 8.16667 8.81071 8.16667 8.16671V7.00004C6.8775 7.00004 5.83333 8.04421 5.83333 9.33337V11.6667H22.1667V9.33337C22.1667 8.04421 21.1213 7.00004 19.8333 7.00004Z" fill="#0E8A74"/>
</svg>
