<svg width="28" height="28" viewBox="0 0 28 28" fill="none" xmlns="http://www.w3.org/2000/svg">
<path fill-rule="evenodd" clip-rule="evenodd" d="M22.8 9.45C22.825 9.5 22.85 9.55 22.9 9.6C23 9.7 23 9.9 23 10V22C23 23.7 21.7 25 20 25H8C6.3 25 5 23.7 5 22V6C5 4.3 6.3 3 8 3H16C16.1 3 16.3 3 16.4 3.1C16.5 3.1 16.6 3.2 16.7 3.3L22.7 9.3C22.75 9.35 22.775 9.4 22.8 9.45ZM19.6 9L17 6.4V9H19.6ZM20 23H8C7.4 23 7 22.6 7 22V6C7 5.4 7.4 5 8 5H15V10C15 10.6 15.4 11 16 11H21V22C21 22.6 20.6 23 20 23ZM18 16C18.6 16 19 15.6 19 15C19 14.4 18.6 14 18 14H10C9.4 14 9 14.4 9 15C9 15.6 9.4 16 10 16H18ZM19 19C19 19.6 18.6 20 18 20H10C9.4 20 9 19.6 9 19C9 18.4 9.4 18 10 18H18C18.6 18 19 18.4 19 19ZM10 10C9.4 10 9 10.4 9 11C9 11.6 9.4 12 10 12H12C12.6 12 13 11.6 13 11C13 10.4 12.6 10 12 10H10Z" fill="black"/>
<mask id="mask0" mask-type="alpha" maskUnits="userSpaceOnUse" x="5" y="3" width="18" height="22">
<path fill-rule="evenodd" clip-rule="evenodd" d="M22.8 9.45C22.825 9.5 22.85 9.55 22.9 9.6C23 9.7 23 9.9 23 10V22C23 23.7 21.7 25 20 25H8C6.3 25 5 23.7 5 22V6C5 4.3 6.3 3 8 3H16C16.1 3 16.3 3 16.4 3.1C16.5 3.1 16.6 3.2 16.7 3.3L22.7 9.3C22.75 9.35 22.775 9.4 22.8 9.45ZM19.6 9L17 6.4V9H19.6ZM20 23H8C7.4 23 7 22.6 7 22V6C7 5.4 7.4 5 8 5H15V10C15 10.6 15.4 11 16 11H21V22C21 22.6 20.6 23 20 23ZM18 16C18.6 16 19 15.6 19 15C19 14.4 18.6 14 18 14H10C9.4 14 9 14.4 9 15C9 15.6 9.4 16 10 16H18ZM19 19C19 19.6 18.6 20 18 20H10C9.4 20 9 19.6 9 19C9 18.4 9.4 18 10 18H18C18.6 18 19 18.4 19 19ZM10 10C9.4 10 9 10.4 9 11C9 11.6 9.4 12 10 12H12C12.6 12 13 11.6 13 11C13 10.4 12.6 10 12 10H10Z" fill="white"/>
</mask>
<g mask="url(#mask0)">
<rect x="2" y="2" width="24" height="24" fill="#0E8A74"/>
</g>
</svg>
