<svg width="28" height="28" viewBox="0 0 28 28" fill="none" xmlns="http://www.w3.org/2000/svg">
<path fill-rule="evenodd" clip-rule="evenodd" d="M23.8 9.45C23.825 9.5 23.85 9.55 23.9 9.6C24 9.7 24 9.9 24 10V22C24 23.7 22.7 25 21 25H9C7.3 25 6 23.7 6 22V6C6 4.3 7.3 3 9 3H17C17.1 3 17.3 3 17.4 3.1C17.5 3.1 17.6 3.2 17.7 3.3L23.7 9.3C23.75 9.35 23.775 9.4 23.8 9.45ZM20.6 9L18 6.4V9H20.6ZM21 23H9C8.4 23 8 22.6 8 22V6C8 5.4 8.4 5 9 5H16V10C16 10.6 16.4 11 17 11H22V22C22 22.6 21.6 23 21 23ZM18 18C18.6 18 19 17.6 19 17C19 16.4 18.6 16 18 16H16V14C16 13.4 15.6 13 15 13C14.4 13 14 13.4 14 14V16H12C11.4 16 11 16.4 11 17C11 17.6 11.4 18 12 18H14V20C14 20.6 14.4 21 15 21C15.6 21 16 20.6 16 20V18H18Z" fill="black"/>
<mask id="mask0" mask-type="alpha" maskUnits="userSpaceOnUse" x="6" y="3" width="18" height="22">
<path fill-rule="evenodd" clip-rule="evenodd" d="M23.8 9.45C23.825 9.5 23.85 9.55 23.9 9.6C24 9.7 24 9.9 24 10V22C24 23.7 22.7 25 21 25H9C7.3 25 6 23.7 6 22V6C6 4.3 7.3 3 9 3H17C17.1 3 17.3 3 17.4 3.1C17.5 3.1 17.6 3.2 17.7 3.3L23.7 9.3C23.75 9.35 23.775 9.4 23.8 9.45ZM20.6 9L18 6.4V9H20.6ZM21 23H9C8.4 23 8 22.6 8 22V6C8 5.4 8.4 5 9 5H16V10C16 10.6 16.4 11 17 11H22V22C22 22.6 21.6 23 21 23ZM18 18C18.6 18 19 17.6 19 17C19 16.4 18.6 16 18 16H16V14C16 13.4 15.6 13 15 13C14.4 13 14 13.4 14 14V16H12C11.4 16 11 16.4 11 17C11 17.6 11.4 18 12 18H14V20C14 20.6 14.4 21 15 21C15.6 21 16 20.6 16 20V18H18Z" fill="white"/>
</mask>
<g mask="url(#mask0)">
<rect x="3" y="2" width="24" height="24" fill="#0E8A74"/>
</g>
</svg>
