<svg width="28" height="28" viewBox="0 0 28 28" fill="none" xmlns="http://www.w3.org/2000/svg">
<path fill-rule="evenodd" clip-rule="evenodd" d="M20 5H19C19 3.9 18.1 3 17 3H11C9.9 3 9 3.9 9 5H8C6.3 5 5 6.3 5 8V22C5 23.7 6.3 25 8 25H20C21.7 25 23 23.7 23 22V8C23 6.3 21.7 5 20 5ZM11 5H17V7H11V6V5ZM20 23C20.6 23 21 22.6 21 22V8C21 7.4 20.6 7 20 7H19C19 8.1 18.1 9 17 9H11C9.9 9 9 8.1 9 7H8C7.4 7 7 7.4 7 8V22C7 22.6 7.4 23 8 23H20Z" fill="black"/>
<mask id="mask0" mask-type="alpha" maskUnits="userSpaceOnUse" x="5" y="3" width="18" height="22">
<path fill-rule="evenodd" clip-rule="evenodd" d="M20 5H19C19 3.9 18.1 3 17 3H11C9.9 3 9 3.9 9 5H8C6.3 5 5 6.3 5 8V22C5 23.7 6.3 25 8 25H20C21.7 25 23 23.7 23 22V8C23 6.3 21.7 5 20 5ZM11 5H17V7H11V6V5ZM20 23C20.6 23 21 22.6 21 22V8C21 7.4 20.6 7 20 7H19C19 8.1 18.1 9 17 9H11C9.9 9 9 8.1 9 7H8C7.4 7 7 7.4 7 8V22C7 22.6 7.4 23 8 23H20Z" fill="white"/>
</mask>
<g mask="url(#mask0)">
<rect x="2" y="2" width="24" height="24" fill="#0E8A74"/>
</g>
</svg>
