<svg width="53" height="45" viewBox="0 0 53 45" fill="none" xmlns="http://www.w3.org/2000/svg">
<path d="M17.34 18.54C17.34 19.66 17.07 20.71 16.53 21.69C16.01 22.67 15.18 23.46 14.04 24.06C12.92 24.66 11.5 24.96 9.78 24.96H6.27V33H2.07V12.06H9.78C11.4 12.06 12.78 12.34 13.92 12.9C15.06 13.46 15.91 14.23 16.47 15.21C17.05 16.19 17.34 17.3 17.34 18.54ZM9.6 21.57C10.76 21.57 11.62 21.31 12.18 20.79C12.74 20.25 13.02 19.5 13.02 18.54C13.02 16.5 11.88 15.48 9.6 15.48H6.27V21.57H9.6ZM33.252 12.06V15.45H24.522V20.82H31.212V24.15H24.522V33H20.322V12.06H33.252ZM43.4602 33.21C42.0002 33.21 40.6802 32.96 39.5002 32.46C38.3402 31.96 37.4202 31.24 36.7402 30.3C36.0602 29.36 35.7102 28.25 35.6902 26.97H40.1902C40.2502 27.83 40.5502 28.51 41.0902 29.01C41.6502 29.51 42.4102 29.76 43.3702 29.76C44.3502 29.76 45.1202 29.53 45.6802 29.07C46.2402 28.59 46.5202 27.97 46.5202 27.21C46.5202 26.59 46.3302 26.08 45.9502 25.68C45.5702 25.28 45.0902 24.97 44.5102 24.75C43.9502 24.51 43.1702 24.25 42.1702 23.97C40.8102 23.57 39.7002 23.18 38.8402 22.8C38.0002 22.4 37.2702 21.81 36.6502 21.03C36.0502 20.23 35.7502 19.17 35.7502 17.85C35.7502 16.61 36.0602 15.53 36.6802 14.61C37.3002 13.69 38.1702 12.99 39.2902 12.51C40.4102 12.01 41.6902 11.76 43.1302 11.76C45.2902 11.76 47.0402 12.29 48.3802 13.35C49.7402 14.39 50.4902 15.85 50.6302 17.73H46.0102C45.9702 17.01 45.6602 16.42 45.0802 15.96C44.5202 15.48 43.7702 15.24 42.8302 15.24C42.0102 15.24 41.3502 15.45 40.8502 15.87C40.3702 16.29 40.1302 16.9 40.1302 17.7C40.1302 18.26 40.3102 18.73 40.6702 19.11C41.0502 19.47 41.5102 19.77 42.0502 20.01C42.6102 20.23 43.3902 20.49 44.3902 20.79C45.7502 21.19 46.8602 21.59 47.7202 21.99C48.5802 22.39 49.3202 22.99 49.9402 23.79C50.5602 24.59 50.8702 25.64 50.8702 26.94C50.8702 28.06 50.5802 29.1 50.0002 30.06C49.4202 31.02 48.5702 31.79 47.4502 32.37C46.3302 32.93 45.0002 33.21 43.4602 33.21Z" fill="#ffffff"/>
</svg>
